<svg width="101" height="101" viewBox="0 0 101 101" fill="none" xmlns="http://www.w3.org/2000/svg">
<path d="M69.2297 65.4724C65.9599 68.3145 61.8919 71.8527 54.4831 71.8527H50.0603C44.7062 71.8527 39.837 69.9473 36.3514 66.4845C32.9486 63.103 31.0712 58.4773 31.0712 53.4543V47.5148C31.0712 42.4918 32.9456 37.8632 36.3514 34.4845C39.837 31.0218 44.7062 29.1164 50.0603 29.1164H54.4831C61.8919 29.1164 65.9599 32.6546 69.2297 35.4967C72.6207 38.4461 75.5506 40.9924 83.3526 40.9924C84.5647 40.9924 85.7532 40.8967 86.9091 40.714C86.9003 40.6908 86.8914 40.6705 86.8825 40.6473C86.4183 39.5192 85.8714 38.4113 85.2417 37.3412L80.0236 28.4755C75.2372 20.3406 66.3886 15.3321 56.8157 15.3321H46.3796C36.8067 15.3321 27.9581 20.3435 23.1717 28.4755L17.9536 37.3412C13.1672 45.476 13.1672 55.496 17.9536 63.6279L23.1717 72.4936C27.9581 80.6285 36.8067 85.637 46.3796 85.637H56.8157C66.3886 85.637 75.2372 80.6256 80.0236 72.4936L85.2417 63.6279C85.8714 62.5549 86.4183 61.4499 86.8825 60.3218C86.8914 60.2986 86.9003 60.2783 86.9091 60.2551C85.7532 60.0724 84.5676 59.9767 83.3526 59.9767C75.5506 59.9767 72.6207 62.523 69.2297 65.4724Z" fill="#006BFF"/>
<path d="M54.4828 34.4948H50.06C41.9121 34.4948 36.5551 40.2051 36.5551 47.5134V53.4529C36.5551 60.7612 41.9091 66.4715 50.06 66.4715H54.4828C66.3558 66.4715 65.4245 54.5955 83.3522 54.5955C85.0699 54.5955 86.7669 54.7492 88.4195 55.0508C88.9635 52.0318 88.9635 48.9403 88.4195 45.9183C86.7669 46.22 85.0699 46.3736 83.3522 46.3736C65.4245 46.3707 66.3558 34.4948 54.4828 34.4948Z" fill="#006BFF"/>
<path d="M98.7148 59.3888C95.652 57.1731 92.1398 55.7289 88.4147 55.0473C88.4088 55.0763 88.4058 55.1053 88.3999 55.1343C88.0806 56.8744 87.5839 58.5884 86.904 60.2501C90.0466 60.749 92.9439 61.909 95.4185 63.6868C95.4096 63.7129 95.4037 63.739 95.3948 63.768C93.9668 68.3154 91.8146 72.6018 89.0001 76.5025C86.2181 80.3538 82.8566 83.7441 79.0044 86.5775C71.0073 92.4619 61.4817 95.5708 51.4535 95.5708C45.2451 95.5708 39.2258 94.3789 33.5613 92.0297C28.089 89.7589 23.1724 86.5079 18.9477 82.3636C14.7229 78.2193 11.4088 73.3964 9.09395 68.0283C6.69925 62.4717 5.48414 56.567 5.48414 50.4767C5.48414 44.3865 6.69925 38.4818 9.09395 32.9251C11.4088 27.557 14.7229 22.7341 18.9477 18.5898C23.1724 14.4455 28.089 11.1945 33.5613 8.9237C39.2258 6.57459 45.2451 5.38265 51.4535 5.38265C61.4817 5.38265 71.0073 8.49159 79.0044 14.3759C82.8566 17.2094 86.2181 20.5996 89.0001 24.451C91.8146 28.3517 93.9668 32.6381 95.3948 37.1855C95.4037 37.2145 95.4125 37.2405 95.4185 37.2666C92.9439 39.0444 90.0466 40.2074 86.904 40.7033C87.5839 42.3679 88.0836 44.0848 88.3999 45.8249C88.4058 45.8539 88.4088 45.88 88.4147 45.909C92.1398 45.2275 95.649 43.7832 98.7148 41.5675C101.651 39.4359 101.083 37.0288 100.637 35.602C94.1649 14.985 74.5934 0 51.4535 0C23.0364 0 0 22.5978 0 50.4738C0 78.3498 23.0364 100.948 51.4535 100.948C74.5934 100.948 94.1649 85.9627 100.637 65.3457C101.083 63.9275 101.654 61.5204 98.7148 59.3888Z" fill="#006BFF"/>
<path d="M86.9056 40.7085C85.7497 40.8912 84.5641 40.9869 83.349 40.9869C75.5471 40.9869 72.6172 38.4406 69.2262 35.4912C65.9564 32.6491 61.8884 29.1109 54.4796 29.1109H50.0568C44.7028 29.1109 39.8335 31.0163 36.3479 34.479C32.945 37.8606 31.0677 42.4863 31.0677 47.5093V53.4488C31.0677 58.4718 32.9421 63.1004 36.3479 66.4791C39.8335 69.9418 44.7028 71.8472 50.0568 71.8472H54.4796C61.8884 71.8472 65.9564 68.309 69.2262 65.4669C72.6172 62.5175 75.5471 59.9712 83.349 59.9712C84.5612 59.9712 85.7497 60.0669 86.9056 60.2496C87.5856 58.5878 88.0823 56.8709 88.4016 55.1337C88.4075 55.1047 88.4105 55.0758 88.4164 55.0468C86.7637 54.7452 85.0667 54.5914 83.349 54.5914C65.4213 54.5914 66.3526 66.4675 54.4796 66.4675H50.0568C41.9089 66.4675 36.5519 60.7571 36.5519 53.4488V47.5093C36.5519 40.201 41.906 34.4907 50.0568 34.4907H54.4796C66.3526 34.4907 65.4213 46.3667 83.349 46.3667C85.0667 46.3667 86.7637 46.213 88.4164 45.9114C88.4105 45.8824 88.4075 45.8562 88.4016 45.8272C88.0853 44.0901 87.5856 42.3732 86.9056 40.7085Z" fill="#0AE8F0"/>
<path d="M86.9056 40.7085C85.7497 40.8912 84.5641 40.9869 83.349 40.9869C75.5471 40.9869 72.6172 38.4406 69.2262 35.4912C65.9564 32.6491 61.8884 29.1109 54.4796 29.1109H50.0568C44.7028 29.1109 39.8335 31.0163 36.3479 34.479C32.945 37.8606 31.0677 42.4863 31.0677 47.5093V53.4488C31.0677 58.4718 32.9421 63.1004 36.3479 66.4791C39.8335 69.9418 44.7028 71.8472 50.0568 71.8472H54.4796C61.8884 71.8472 65.9564 68.309 69.2262 65.4669C72.6172 62.5175 75.5471 59.9712 83.349 59.9712C84.5612 59.9712 85.7497 60.0669 86.9056 60.2496C87.5856 58.5878 88.0823 56.8709 88.4016 55.1337C88.4075 55.1047 88.4105 55.0758 88.4164 55.0468C86.7637 54.7452 85.0667 54.5914 83.349 54.5914C65.4213 54.5914 66.3526 66.4675 54.4796 66.4675H50.0568C41.9089 66.4675 36.5519 60.7571 36.5519 53.4488V47.5093C36.5519 40.201 41.906 34.4907 50.0568 34.4907H54.4796C66.3526 34.4907 65.4213 46.3667 83.349 46.3667C85.0667 46.3667 86.7637 46.213 88.4164 45.9114C88.4105 45.8824 88.4075 45.8562 88.4016 45.8272C88.0853 44.0901 87.5856 42.3732 86.9056 40.7085Z" fill="#0AE8F0"/>
</svg>
